<?xml version="1.0" encoding="utf-8"?>
<!-- Generator: Adobe Illustrator 19.0.0, SVG Export Plug-In . SVG Version: 6.00 Build 0)  -->
<!DOCTYPE svg PUBLIC "-//W3C//DTD SVG 1.1//EN" "http://www.w3.org/Graphics/SVG/1.1/DTD/svg11.dtd">
<svg version="1.1" id="Layer_1" xmlns="http://www.w3.org/2000/svg" xmlns:xlink="http://www.w3.org/1999/xlink" x="0px" y="0px"
	 viewBox="340 -308 800 736" enable-background="new 340 -308 800 736" xml:space="preserve">
<g>
	<polygon fill="#FFFFFF" points="340,-307.7 469.2,427.7 534.8,427.7 534.8,239.7 646.4,135.8 635.4,127 503.8,247.5 491.7,229.8 
		637.6,101.5 639.9,102.1 766.5,202.6 815.4,212.1 815.4,153.4 815.6,153.5 815.6,-135 1073.2,-184.8 1073.2,427.7 1140,427.7 
		1140,-174.2 	"/>
	<polygon fill="#FFFFFF" points="556.9,359.9 598.9,358.6 598.9,300.8 556.5,303 	"/>
	<polygon fill="#FFFFFF" points="979.8,213.6 1042.9,208.4 1042.9,32.6 979.8,41.5 	"/>
	<polygon fill="#FFFFFF" points="979.8,17.5 1042.9,7.9 1042.9,-142.6 979.8,-129.4 	"/>
	<polygon fill="#FFFFFF" points="616.6,427.7 669.9,427.7 669.9,289.4 616.6,292.7 	"/>
	<polygon fill="#FFFFFF" points="959.9,-125.2 901.7,-113 901.7,29.4 959.9,20.5 	"/>
	<polygon fill="#FFFFFF" points="772.5,427.7 812.3,427.7 812.3,233.1 772.5,225.3 	"/>
	<polygon fill="#FFFFFF" points="690.6,355.8 744.7,354.1 744.7,293.1 690.6,296.1 	"/>
	<polygon fill="#FFFFFF" points="881.8,-108.9 834.8,-99 834.8,39.5 881.8,32.4 	"/>
	<polygon fill="#FFFFFF" points="901.7,219.9 959.9,215.2 959.9,44.4 901.7,52.6 	"/>
	<polygon fill="#FFFFFF" points="834.8,225.4 881.8,221.6 881.8,55.5 834.8,62.2 	"/>
	<polygon fill="#FFFFFF" points="863.9,427.7 1000.8,427.7 1000.8,292.6 863.9,302.1 	"/>
</g>
</svg>
